<svg width="55" height="55" viewBox="0 0 55 55" fill="none" xmlns="http://www.w3.org/2000/svg">
<g id="carbon:chevron-up-outline">
<path id="Vector" d="M33.3678 38.8197L22.0516 27.5L33.3695 16.1803L30.9375 13.75L17.1875 27.5L30.9375 41.25L33.3678 38.8197Z" fill="white"/>
<path id="Vector_2" d="M27.5 3.4375C40.7687 3.4375 51.5625 14.2313 51.5625 27.5C51.5625 40.7687 40.7687 51.5625 27.5 51.5625C14.2313 51.5625 3.4375 40.7687 3.4375 27.5C3.4375 14.2313 14.2313 3.4375 27.5 3.4375ZM27.5 48.125C38.873 48.125 48.125 38.873 48.125 27.5C48.125 16.127 38.873 6.875 27.5 6.875C16.127 6.875 6.875 16.127 6.875 27.5C6.875 38.873 16.127 48.125 27.5 48.125Z" fill="white"/>
</g>
</svg>
