<svg width="40" height="40" viewBox="0 0 40 40" fill="none" xmlns="http://www.w3.org/2000/svg">
<g id="Group 1">
<path id="Vector" d="M40 20.1222C40 9.0091 31.0456 0 20 0C8.95437 0 0 9.0091 0 20.1222C0 30.1657 7.31375 38.4905 16.875 40V25.9388H11.7969V20.1222H16.875V15.689C16.875 10.6459 19.8609 7.86024 24.4294 7.86024C26.6175 7.86024 28.9062 8.25326 28.9062 8.25326V13.2052H26.3844C23.8998 13.2052 23.125 14.7564 23.125 16.3477V20.1222H28.6719L27.7852 25.9388H23.125V40C32.6862 38.4905 40 30.1659 40 20.1222Z" fill="#1877F2"/>
<path id="Vector_2" d="M27.8861 25.8641L28.7671 20.1165H23.2557V16.3868C23.2557 14.8141 24.0256 13.2816 26.4942 13.2816H29V8.38835C29 8.38835 26.7259 8 24.5516 8C20.0125 8 17.0457 10.7526 17.0457 15.7359V20.1165H12V25.8641H17.0457V39.7584C18.0728 39.9195 19.111 40.0002 20.1507 40C21.1904 40.0002 22.2285 39.9195 23.2557 39.7584V25.8641H27.8861Z" fill="white"/>
</g>
</svg>
