<svg xmlns="http://www.w3.org/2000/svg" xmlns:xlink="http://www.w3.org/1999/xlink" width="500" zoomAndPan="magnify" viewBox="0 0 375 374.999991" height="500" preserveAspectRatio="xMidYMid meet" version="1.0"><defs><filter x="0%" y="0%" width="100%" height="100%" id="b7bab6b05b"><feColorMatrix values="0 0 0 0 1 0 0 0 0 1 0 0 0 0 1 0 0 0 1 0" color-interpolation-filters="sRGB"/></filter><g/><clipPath id="2bacd5b1bb"><path d="M 0 135 L 192 135 L 192 255.75 L 0 255.75 Z M 0 135 " clip-rule="nonzero"/></clipPath><clipPath id="a86522bf43"><path d="M 183 135 L 375 135 L 375 255.75 L 183 255.75 Z M 183 135 " clip-rule="nonzero"/></clipPath><mask id="053b116ee8"><g filter="url(#b7bab6b05b)"><rect x="-37.5" width="450" fill="#000000" y="-37.499999" height="449.999989" fill-opacity="0.3"/></g></mask><clipPath id="1237d62cd0"><path d="M 0.398438 0.078125 L 115 0.078125 L 115 181 L 0.398438 181 Z M 0.398438 0.078125 " clip-rule="nonzero"/></clipPath><clipPath id="28038941ef"><rect x="0" width="116" y="0" height="182"/></clipPath><mask id="ba440ab6da"><g filter="url(#b7bab6b05b)"><rect x="-37.5" width="450" fill="#000000" y="-37.499999" height="449.999989" fill-opacity="0.3"/></g></mask><clipPath id="61bb9ffed1"><path d="M 0.71875 0.078125 L 115.679688 0.078125 L 115.679688 181 L 0.71875 181 Z M 0.71875 0.078125 " clip-rule="nonzero"/></clipPath><clipPath id="e7042849e7"><rect x="0" width="116" y="0" height="182"/></clipPath><clipPath id="fb4db9be0e"><path d="M 140 37.5 L 236 37.5 L 236 255 L 140 255 Z M 140 37.5 " clip-rule="nonzero"/></clipPath></defs><path fill="#ff4620" d="M 135.15625 53.414062 C 135.15625 53.414062 75.40625 186.546875 181.214844 241.148438 C 249.191406 141.542969 135.152344 53.414062 135.152344 53.414062 Z M 135.15625 53.414062 " fill-opacity="1" fill-rule="nonzero"/><path fill="#ff4620" d="M 243.707031 53.414062 C 243.707031 53.414062 303.453125 186.546875 197.648438 241.148438 C 129.667969 141.542969 243.707031 53.414062 243.707031 53.414062 Z M 243.707031 53.414062 " fill-opacity="1" fill-rule="nonzero"/><path fill="#000000" d="M 132.023438 51.496094 C 127.695312 61.164062 124.519531 71.433594 121.84375 81.664062 C 116.140625 103.441406 113.316406 126.3125 115.367188 148.796875 C 117.050781 167.277344 122.292969 185.375 131.890625 201.328125 C 143.152344 220.035156 160.210938 234.417969 179.445312 244.433594 C 181.378906 245.4375 183.441406 244.847656 184.644531 243.070312 C 203.476562 215.238281 211.144531 182.445312 203.824219 149.4375 C 198.050781 123.394531 183.847656 99.789062 166.921875 79.484375 C 158.289062 69.125 148.691406 59.007812 137.992188 50.722656 C 134.167969 47.761719 128.746094 53.101562 132.617188 56.097656 C 142.625 63.847656 151.585938 73.234375 159.808594 82.804688 C 176.820312 102.597656 190.628906 125.84375 196.496094 151.457031 C 203.589844 182.398438 195.664062 213.25 178.082031 239.230469 C 179.816406 238.777344 181.550781 238.324219 183.28125 237.867188 C 156.96875 224.167969 136.789062 202.433594 127.90625 173.878906 C 120.765625 150.925781 121.0625 126.097656 125.074219 102.589844 C 127.066406 90.9375 130.019531 79.4375 133.761719 68.226562 C 134.875 64.882812 136.074219 61.570312 137.367188 58.289062 C 137.574219 57.765625 137.789062 57.238281 138 56.714844 C 138.148438 56.355469 138.785156 54.839844 138.15625 56.324219 C 138.296875 55.992188 138.4375 55.65625 138.585938 55.328125 C 140.554688 50.890625 134.011719 47.023438 132.003906 51.488281 Z M 132.023438 51.496094 " fill-opacity="1" fill-rule="nonzero"/><path fill="#000000" d="M 240.574219 55.332031 C 240.648438 55.496094 240.71875 55.664062 240.792969 55.832031 C 240.929688 56.144531 241.289062 57.011719 240.722656 55.664062 C 240.871094 56.011719 241.015625 56.363281 241.160156 56.71875 C 241.996094 58.757812 242.777344 60.816406 243.535156 62.886719 C 246.152344 70.054688 248.371094 77.371094 250.269531 84.765625 C 255.867188 106.566406 258.398438 129.335938 255.882812 151.777344 C 254.019531 168.414062 248.714844 184.65625 239.847656 198.882812 C 229.261719 215.863281 213.492188 228.699219 195.878906 237.875 C 197.609375 238.328125 199.34375 238.78125 201.078125 239.238281 C 191.089844 224.476562 183.914062 208.214844 181.09375 190.554688 C 178.75 175.875 180.097656 160.746094 183.90625 146.445312 C 190.546875 121.503906 204.960938 99.027344 221.929688 79.851562 C 229.433594 71.371094 237.566406 63.054688 246.542969 56.101562 C 250.414062 53.105469 244.992188 47.769531 241.167969 50.726562 C 231.164062 58.476562 222.203125 67.867188 213.980469 77.433594 C 196.859375 97.355469 182.765625 120.496094 176.140625 146.085938 C 167.378906 179.9375 175.09375 214.363281 194.515625 243.070312 C 195.71875 244.851562 197.785156 245.441406 199.714844 244.433594 C 226.308594 230.585938 247.011719 208.734375 257.125 180.328125 C 265.453125 156.949219 265.820312 131.441406 262.4375 107.097656 C 259.8125 88.226562 254.953125 68.945312 247.136719 51.496094 C 245.140625 47.035156 238.589844 50.902344 240.578125 55.335938 Z M 240.574219 55.332031 " fill-opacity="1" fill-rule="nonzero"/><path fill="#ff4620" d="M 4.421875 142.136719 C 4.421875 142.136719 66.179688 287.675781 187.503906 243.832031 C 158.441406 116.464844 4.421875 142.136719 4.421875 142.136719 Z M 4.421875 142.136719 " fill-opacity="1" fill-rule="nonzero"/><path fill="#ff4620" d="M 370.578125 142.136719 C 370.578125 142.136719 308.824219 287.675781 187.5 243.832031 C 216.558594 116.464844 370.578125 142.136719 370.578125 142.136719 Z M 370.578125 142.136719 " fill-opacity="1" fill-rule="nonzero"/><g clip-path="url(#2bacd5b1bb)"><path fill="#000000" d="M 1.140625 144.058594 C 4.800781 152.660156 9.496094 160.902344 14.347656 168.871094 C 25.28125 186.839844 38.410156 203.679688 53.859375 217.988281 C 70.144531 233.074219 89.359375 245.136719 110.773438 251.359375 C 136.394531 258.808594 163.59375 256.417969 188.507812 247.507812 C 190.519531 246.789062 191.65625 244.96875 191.164062 242.832031 C 184.832031 215.476562 171.289062 190.207031 149.742188 171.882812 C 131.824219 156.648438 109.800781 147.085938 87.03125 141.78125 C 60.203125 135.535156 30.710938 133.976562 3.414062 138.480469 C -1.414062 139.28125 0.640625 146.601562 5.433594 145.808594 C 6.023438 145.710938 6.617188 145.625 7.210938 145.542969 C 8.050781 145.429688 6.113281 145.6875 7.304688 145.535156 C 7.6875 145.484375 8.070312 145.4375 8.449219 145.390625 C 9.472656 145.265625 10.5 145.152344 11.523438 145.042969 C 17.652344 144.402344 23.808594 144.046875 29.96875 143.898438 C 49.09375 143.421875 68.316406 145.09375 86.9375 149.566406 C 108 154.628906 128.332031 163.625 144.925781 177.734375 C 165.320312 195.074219 177.855469 219.007812 183.835938 244.855469 C 184.71875 243.296875 185.605469 241.738281 186.488281 240.179688 C 159.042969 249.996094 129.96875 251.15625 102.582031 240.582031 C 80.128906 231.917969 60.988281 216.070312 45.183594 198.214844 C 30.121094 181.199219 16.636719 161.230469 7.703125 140.226562 C 5.800781 135.726562 -0.746094 139.605469 1.148438 144.0625 Z M 1.140625 144.058594 " fill-opacity="1" fill-rule="nonzero"/></g><g clip-path="url(#a86522bf43)"><path fill="#000000" d="M 367.296875 140.222656 C 363.640625 148.824219 358.941406 157.066406 354.09375 165.035156 C 343.230469 182.882812 330.183594 199.476562 314.71875 213.574219 C 299.4375 227.503906 281.4375 238.582031 261.457031 244.242188 C 237.273438 251.09375 211.964844 248.5625 188.511719 240.175781 C 189.394531 241.734375 190.28125 243.292969 191.164062 244.847656 C 197.460938 217.625 211.007812 193.085938 232.894531 175.390625 C 250.734375 160.96875 272.808594 152.554688 295.09375 148 C 312.226562 144.5 329.832031 143.394531 347.289062 143.953125 C 352.871094 144.132812 358.449219 144.507812 364 145.09375 C 364.917969 145.191406 365.835938 145.296875 366.75 145.410156 C 367.125 145.457031 367.496094 145.503906 367.867188 145.550781 C 368.816406 145.675781 366.832031 145.40625 367.921875 145.558594 C 368.472656 145.636719 369.019531 145.710938 369.566406 145.804688 C 374.359375 146.597656 376.414062 139.277344 371.585938 138.476562 C 344.464844 133.972656 315.296875 135.613281 288.609375 141.632812 C 265.773438 146.78125 243.914062 156.40625 225.824219 171.40625 C 204.171875 189.359375 190.507812 214.75 184.058594 241.863281 C 183.984375 242.1875 183.910156 242.507812 183.835938 242.832031 C 183.34375 244.964844 184.480469 246.785156 186.492188 247.503906 C 214.039062 257.355469 243.820312 258.878906 271.574219 248.980469 C 294.765625 240.710938 314.859375 225.492188 331.539062 207.617188 C 348.660156 189.273438 363.992188 167.265625 373.859375 144.058594 C 375.753906 139.609375 369.210938 135.734375 367.296875 140.234375 Z M 367.296875 140.222656 " fill-opacity="1" fill-rule="nonzero"/></g><path fill="#ff4620" d="M 81.867188 64.113281 C 81.867188 64.113281 61.417969 220.882812 188.230469 244.527344 C 227.671875 119.96875 81.867188 64.113281 81.867188 64.113281 Z M 81.867188 64.113281 " fill-opacity="1" fill-rule="nonzero"/><path fill="#ff4620" d="M 294.066406 64.113281 C 294.066406 64.113281 314.519531 220.882812 187.707031 244.527344 C 148.257812 119.96875 294.066406 64.113281 294.066406 64.113281 Z M 294.066406 64.113281 " fill-opacity="1" fill-rule="nonzero"/><g mask="url(#053b116ee8)"><g transform="matrix(1, 0, 0, 1, 80, 64)"><g clip-path="url(#28038941ef)"><g clip-path="url(#1237d62cd0)"><path fill="#e1d3b6" d="M 1.867188 0.113281 C 1.867188 0.113281 -18.582031 156.882812 108.230469 180.527344 C 147.671875 55.96875 1.867188 0.113281 1.867188 0.113281 Z M 1.867188 0.113281 " fill-opacity="1" fill-rule="nonzero"/></g></g></g></g><g mask="url(#ba440ab6da)"><g transform="matrix(1, 0, 0, 1, 180, 64)"><g clip-path="url(#e7042849e7)"><g clip-path="url(#61bb9ffed1)"><path fill="#e1d3b6" d="M 114.066406 0.113281 C 114.066406 0.113281 134.519531 156.882812 7.707031 180.527344 C -31.742188 55.96875 114.066406 0.113281 114.066406 0.113281 Z M 114.066406 0.113281 " fill-opacity="1" fill-rule="nonzero"/></g></g></g></g><path fill="#000000" d="M 78.066406 65.152344 C 74.558594 92.195312 77.175781 121.199219 83.832031 147.5 C 89.527344 170.023438 99.480469 191.582031 114.710938 209.265625 C 132.660156 230.105469 157.667969 243.085938 184.375 248.664062 C 185.320312 248.863281 186.269531 249.042969 187.21875 249.222656 C 189.308594 249.617188 191.238281 248.664062 191.894531 246.570312 C 200.609375 218.738281 201.425781 188.984375 191.054688 161.484375 C 182.476562 138.734375 167.242188 119.117188 149.265625 102.972656 C 130.089844 85.75 107.050781 70.765625 82.875 61.484375 C 78.292969 59.722656 76.332031 67.074219 80.855469 68.8125 C 81.464844 69.042969 82.0625 69.292969 82.664062 69.542969 C 83.445312 69.871094 81.746094 69.152344 82.867188 69.628906 C 83.25 69.792969 83.632812 69.960938 84.011719 70.125 C 85.03125 70.570312 86.050781 71.027344 87.0625 71.492188 C 93.085938 74.253906 98.976562 77.3125 104.746094 80.570312 C 122.488281 90.589844 139.070312 102.773438 153.3125 117.378906 C 167.867188 132.304688 179.632812 150.070312 185.992188 170.019531 C 193.773438 194.429688 192.15625 220.304688 184.5625 244.546875 L 189.238281 241.890625 C 162.234375 236.769531 137.675781 224.316406 119.609375 203.339844 C 104.695312 186.023438 95.640625 164.347656 90.375 142.304688 C 84.472656 117.585938 82.378906 90.464844 85.664062 65.148438 C 86.304688 60.300781 78.695312 60.363281 78.074219 65.152344 Z M 78.066406 65.152344 " fill-opacity="1" fill-rule="nonzero"/><path fill="#000000" d="M 290.269531 65.152344 C 293.75 91.976562 291.226562 120.699219 284.449219 146.753906 C 278.921875 167.984375 269.503906 188.445312 254.894531 204.984375 C 237.132812 225.097656 212.820312 236.945312 186.695312 241.898438 C 188.253906 242.78125 189.808594 243.667969 191.367188 244.550781 C 182.691406 216.847656 182.3125 187.777344 193.320312 160.683594 C 202.257812 138.699219 218.171875 120.066406 236.085938 104.828125 C 248.480469 94.285156 262.210938 85.300781 276.546875 77.625 C 281.078125 75.203125 285.6875 72.921875 290.371094 70.816406 C 291.148438 70.46875 291.921875 70.125 292.703125 69.789062 C 294.183594 69.152344 292.390625 69.910156 293.667969 69.382812 C 294.136719 69.1875 294.605469 68.996094 295.078125 68.816406 C 299.601562 67.078125 297.640625 59.726562 293.058594 61.488281 C 265.769531 71.960938 239.828125 89.519531 219.199219 110.03125 C 203.1875 125.949219 190.253906 145.03125 183.085938 166.535156 C 174.414062 192.558594 175.914062 220.625 184.039062 246.574219 C 184.699219 248.671875 186.625 249.625 188.714844 249.226562 C 215.875 244.078125 241.105469 231.523438 259.785156 210.898438 C 275.492188 193.558594 285.601562 171.863281 291.609375 149.410156 C 296.632812 130.625 298.847656 111.046875 299.070312 91.625 C 299.167969 82.835938 298.976562 73.914062 297.871094 65.179688 C 297.867188 65.171875 297.867188 65.160156 297.867188 65.152344 C 297.25 60.371094 289.644531 60.308594 290.273438 65.160156 Z M 290.269531 65.152344 " fill-opacity="1" fill-rule="nonzero"/><path fill="#ff4620" d="M 187.964844 39.105469 C 187.964844 39.105469 90.726562 163.769531 187.964844 248.53125 C 285.199219 161.273438 187.964844 39.105469 187.964844 39.105469 Z M 187.964844 39.105469 " fill-opacity="1" fill-rule="nonzero"/><g clip-path="url(#fb4db9be0e)"><path fill="#000000" d="M 185.28125 38.828125 C 177.335938 49.03125 170.683594 60.355469 164.734375 71.804688 C 152.328125 95.675781 143.433594 121.699219 141.34375 148.632812 C 139.949219 166.582031 142.175781 184.863281 148.425781 201.769531 C 155.910156 222.007812 169.152344 239.460938 185.28125 253.628906 C 186.898438 255.050781 189.042969 255.089844 190.65625 253.628906 C 216.777344 230.003906 233.277344 198.722656 234.871094 163.304688 C 236.144531 135.050781 228.101562 107.011719 216.304688 81.59375 C 209.355469 66.621094 200.953125 51.792969 190.65625 38.828125 C 187.605469 34.992188 182.265625 40.40625 185.28125 44.203125 C 185.882812 44.957031 184.742188 43.496094 185.179688 44.070312 C 185.652344 44.683594 186.117188 45.308594 186.578125 45.933594 C 188.214844 48.152344 189.785156 50.421875 191.320312 52.710938 C 196.582031 60.546875 201.34375 68.714844 205.664062 77.101562 C 218.089844 101.210938 226.71875 127.886719 227.355469 155.15625 C 227.730469 171.140625 224.9375 186.96875 219.019531 201.824219 C 211.851562 219.824219 199.550781 235.351562 185.28125 248.257812 L 190.65625 248.257812 C 176.894531 236.164062 165.496094 221.875 157.945312 205.121094 C 151.601562 191.046875 148.746094 175.542969 148.558594 160.160156 C 148.21875 132.746094 156.625 105.65625 168.503906 81.195312 C 173.039062 71.851562 178.175781 62.796875 183.824219 54.085938 C 185.53125 51.453125 187.296875 48.855469 189.125 46.304688 C 189.613281 45.621094 190.109375 44.945312 190.609375 44.269531 C 190.898438 43.886719 191.824219 42.699219 190.65625 44.199219 C 193.625 40.382812 188.292969 34.960938 185.28125 38.824219 Z M 185.28125 38.828125 " fill-opacity="1" fill-rule="nonzero"/></g><g fill="#ff4620" fill-opacity="1"><g transform="translate(52.344462, 317.072517)"><g><path d="M 30.0625 -22.1875 C 32.59375 -21.84375 34.726562 -20.800781 36.46875 -19.0625 C 38.21875 -17.320312 39.09375 -14.835938 39.09375 -11.609375 C 39.09375 -8.171875 37.960938 -5.375 35.703125 -3.21875 C 33.441406 -1.070312 30.078125 0 25.609375 0 L 4.1875 0 L 4.1875 -42.890625 L 26.0625 -42.890625 C 29.070312 -42.890625 31.476562 -42.414062 33.28125 -41.46875 C 35.082031 -40.519531 36.398438 -39.25 37.234375 -37.65625 C 38.078125 -36.070312 38.5 -34.3125 38.5 -32.375 C 38.5 -30.269531 38.09375 -28.507812 37.28125 -27.09375 C 36.46875 -25.675781 35.414062 -24.566406 34.125 -23.765625 C 32.832031 -22.972656 31.476562 -22.445312 30.0625 -22.1875 Z M 24.515625 -37.53125 L 10.84375 -37.53125 L 10.84375 -24.640625 L 23.671875 -24.640625 C 26.421875 -24.640625 28.421875 -25.1875 29.671875 -26.28125 C 30.921875 -27.375 31.546875 -29.019531 31.546875 -31.21875 C 31.546875 -33.320312 31.050781 -34.898438 30.0625 -35.953125 C 29.070312 -37.003906 27.222656 -37.53125 24.515625 -37.53125 Z M 24.828125 -5.359375 C 27.492188 -5.359375 29.375 -6.054688 30.46875 -7.453125 C 31.570312 -8.847656 32.125 -10.492188 32.125 -12.390625 C 32.125 -14.753906 31.457031 -16.566406 30.125 -17.828125 C 28.789062 -19.097656 26.640625 -19.734375 23.671875 -19.734375 L 10.84375 -19.734375 L 10.84375 -5.359375 Z M 24.828125 -5.359375 "/></g></g></g><g fill="#ff4620" fill-opacity="1"><g transform="translate(133.366092, 317.072517)"><g><path d="M 37.34375 0 L 33.546875 -10.1875 L 12.765625 -10.1875 L 8.96875 0 L 2.25 0 L 18.1875 -42.890625 L 28.1875 -42.890625 L 44.125 0 Z M 14.765625 -15.546875 L 31.546875 -15.546875 L 23.15625 -38.1875 Z M 14.765625 -15.546875 "/></g></g></g><g fill="#ff4620" fill-opacity="1"><g transform="translate(218.258153, 317.072517)"><g><path d="M 10.84375 -5.359375 L 32.578125 -5.359375 L 32.578125 0 L 4.1875 0 L 4.1875 -42.890625 L 10.84375 -42.890625 Z M 10.84375 -5.359375 "/></g></g></g><g fill="#ff4620" fill-opacity="1"><g transform="translate(290.055192, 317.072517)"><g><path d="M 28.375 -37.53125 L 19.609375 -37.53125 L 19.609375 -5.359375 L 28.375 -5.359375 L 28.375 0 L 4.1875 0 L 4.1875 -5.359375 L 12.96875 -5.359375 L 12.96875 -37.53125 L 4.1875 -37.53125 L 4.1875 -42.890625 L 28.375 -42.890625 Z M 28.375 -37.53125 "/></g></g></g></svg>